<svg xmlns="http://www.w3.org/2000/svg" xmlns:xlink="http://www.w3.org/1999/xlink" viewBox="0 0 86.5 86.55"><defs><style>.cls-1{fill:none;stroke:#000;stroke-linecap:round;stroke-linejoin:round;stroke-width:5px;}.cls-2{fill:#fff;fill-rule:evenodd;}</style><symbol id="logo" viewBox="0 0 86.5 86.55"><g><path class="cls-1" d="M54.85,8.2H78.1V31.45L54.85,54.7M8.3,31.45V8.2H31.6L54.85,31.45M31.6,54.7,54.85,78H78.1V54.7M31.6,78H8.3V54.7L31.6,31.45"/><path class="cls-2" d="M14.1,31.6a5.6,5.6,0,0,1-1.7,4.1,5.6,5.6,0,0,1-4.1,1.7,5.6,5.6,0,0,1-4.1-1.7,5.79,5.79,0,0,1,0-8.2,5.6,5.6,0,0,1,4.1-1.7,5.6,5.6,0,0,1,4.1,1.7A5.6,5.6,0,0,1,14.1,31.6Z"/><path class="cls-1" d="M14.1,31.6a5.6,5.6,0,0,1-1.7,4.1,5.6,5.6,0,0,1-4.1,1.7,5.6,5.6,0,0,1-4.1-1.7,5.79,5.79,0,0,1,0-8.2,5.6,5.6,0,0,1,4.1-1.7,5.6,5.6,0,0,1,4.1,1.7A5.6,5.6,0,0,1,14.1,31.6Z"/><path class="cls-2" d="M14.1,8.3a5.6,5.6,0,0,1-1.7,4.1,5.6,5.6,0,0,1-4.1,1.7,5.6,5.6,0,0,1-4.1-1.7A5.6,5.6,0,0,1,2.5,8.3,5.6,5.6,0,0,1,4.2,4.2,5.6,5.6,0,0,1,8.3,2.5a5.6,5.6,0,0,1,4.1,1.7A5.6,5.6,0,0,1,14.1,8.3Z"/><path class="cls-1" d="M14.1,8.3a5.6,5.6,0,0,1-1.7,4.1,5.6,5.6,0,0,1-4.1,1.7,5.6,5.6,0,0,1-4.1-1.7A5.6,5.6,0,0,1,2.5,8.3,5.6,5.6,0,0,1,4.2,4.2,5.6,5.6,0,0,1,8.3,2.5a5.6,5.6,0,0,1,4.1,1.7A5.6,5.6,0,0,1,14.1,8.3Z"/><path class="cls-2" d="M14.1,54.85A5.6,5.6,0,0,1,12.4,59a5.6,5.6,0,0,1-4.1,1.7A5.6,5.6,0,0,1,4.2,59a5.6,5.6,0,0,1-1.7-4.1A5.53,5.53,0,0,1,4.2,50.8a5.6,5.6,0,0,1,4.1-1.7,5.6,5.6,0,0,1,4.1,1.7A5.53,5.53,0,0,1,14.1,54.85Z"/><path class="cls-1" d="M14.1,54.85A5.6,5.6,0,0,1,12.4,59a5.6,5.6,0,0,1-4.1,1.7A5.6,5.6,0,0,1,4.2,59a5.6,5.6,0,0,1-1.7-4.1A5.53,5.53,0,0,1,4.2,50.8a5.6,5.6,0,0,1,4.1-1.7,5.6,5.6,0,0,1,4.1,1.7A5.53,5.53,0,0,1,14.1,54.85Z"/><path class="cls-2" d="M4.2,74.15a5.6,5.6,0,0,1,4.1-1.7,5.6,5.6,0,0,1,4.1,1.7,5.79,5.79,0,0,1,0,8.2,5.6,5.6,0,0,1-4.1,1.7,5.6,5.6,0,0,1-4.1-1.7,5.79,5.79,0,0,1,0-8.2Z"/><path class="cls-1" d="M4.2,74.15a5.6,5.6,0,0,1,4.1-1.7,5.6,5.6,0,0,1,4.1,1.7,5.79,5.79,0,0,1,0,8.2,5.6,5.6,0,0,1-4.1,1.7,5.6,5.6,0,0,1-4.1-1.7,5.79,5.79,0,0,1,0-8.2Z"/><path class="cls-2" d="M37.45,31.6a5.8,5.8,0,0,1-9.9,4.1,5.8,5.8,0,1,1,8.2-8.2A5.6,5.6,0,0,1,37.45,31.6Z"/><path class="cls-1" d="M37.45,31.6a5.8,5.8,0,0,1-9.9,4.1,5.8,5.8,0,1,1,8.2-8.2A5.6,5.6,0,0,1,37.45,31.6Z"/><path class="cls-2" d="M27.55,4.2a5.79,5.79,0,0,1,8.2,0,5.6,5.6,0,0,1,1.7,4.1,5.6,5.6,0,0,1-1.7,4.1,5.79,5.79,0,0,1-8.2,0,5.6,5.6,0,0,1-1.7-4.1A5.6,5.6,0,0,1,27.55,4.2Z"/><path class="cls-1" d="M27.55,4.2a5.79,5.79,0,0,1,8.2,0,5.6,5.6,0,0,1,1.7,4.1,5.6,5.6,0,0,1-1.7,4.1,5.79,5.79,0,0,1-8.2,0,5.6,5.6,0,0,1-1.7-4.1A5.6,5.6,0,0,1,27.55,4.2Z"/><path class="cls-2" d="M27.55,50.8a5.79,5.79,0,0,1,8.2,0,5.53,5.53,0,0,1,1.7,4.05,5.8,5.8,0,0,1-9.9,4.1,5.6,5.6,0,0,1-1.7-4.1A5.53,5.53,0,0,1,27.55,50.8Z"/><path class="cls-1" d="M27.55,50.8a5.79,5.79,0,0,1,8.2,0,5.53,5.53,0,0,1,1.7,4.05,5.8,5.8,0,0,1-9.9,4.1,5.6,5.6,0,0,1-1.7-4.1A5.53,5.53,0,0,1,27.55,50.8Z"/> <path class="cls-2" d="M37.45,78.25a5.8,5.8,0,0,1-9.9,4.1,5.8,5.8,0,1,1,8.2-8.2A5.6,5.6,0,0,1,37.45,78.25Z"/><path class="cls-1" d="M37.45,78.25a5.8,5.8,0,0,1-9.9,4.1,5.8,5.8,0,1,1,8.2-8.2A5.6,5.6,0,0,1,37.45,78.25Z"/><path class="cls-2" d="M54.9,25.8A5.8,5.8,0,0,1,59,35.7a5.8,5.8,0,1,1-8.2-8.2A5.6,5.6,0,0,1,54.9,25.8Z"/><path class="cls-1" d="M54.9,25.8A5.8,5.8,0,0,1,59,35.7a5.8,5.8,0,1,1-8.2-8.2A5.6,5.6,0,0,1,54.9,25.8Z"/><path class="cls-2" d="M54.9,2.5A5.6,5.6,0,0,1,59,4.2a5.6,5.6,0,0,1,1.7,4.1A5.6,5.6,0,0,1,59,12.4a5.79,5.79,0,0,1-8.2,0,5.6,5.6,0,0,1-1.7-4.1,5.6,5.6,0,0,1,1.7-4.1A5.6,5.6,0,0,1,54.9,2.5Z"/><path class="cls-1" d="M54.9,2.5A5.6,5.6,0,0,1,59,4.2a5.6,5.6,0,0,1,1.7,4.1A5.6,5.6,0,0,1,59,12.4a5.79,5.79,0,0,1-8.2,0,5.6,5.6,0,0,1-1.7-4.1,5.6,5.6,0,0,1,1.7-4.1A5.6,5.6,0,0,1,54.9,2.5Z"/><path class="cls-2" d="M54.9,49.1A5.6,5.6,0,0,1,59,50.8a5.53,5.53,0,0,1,1.7,4.05,5.8,5.8,0,0,1-11.6,0,5.53,5.53,0,0,1,1.7-4.05A5.6,5.6,0,0,1,54.9,49.1Z"/><path class="cls-1" d="M54.9,49.1A5.6,5.6,0,0,1,59,50.8a5.53,5.53,0,0,1,1.7,4.05,5.8,5.8,0,0,1-11.6,0,5.53,5.53,0,0,1,1.7-4.05A5.6,5.6,0,0,1,54.9,49.1Z"/><path class="cls-2" d="M50.8,82.35a5.79,5.79,0,1,1,4.1,1.7A5.6,5.6,0,0,1,50.8,82.35Z"/><path class="cls-1" d="M50.8,82.35a5.79,5.79,0,1,1,4.1,1.7A5.6,5.6,0,0,1,50.8,82.35Z"/><path class="cls-2" d="M82.3,27.5a5.79,5.79,0,1,1-4.1-1.7A5.6,5.6,0,0,1,82.3,27.5Z"/><path class="cls-1" d="M82.3,27.5a5.79,5.79,0,1,1-4.1-1.7A5.6,5.6,0,0,1,82.3,27.5Z"/><path class="cls-2" d="M74.1,4.2a5.79,5.79,0,0,1,8.2,0A5.6,5.6,0,0,1,84,8.3a5.6,5.6,0,0,1-1.7,4.1,5.79,5.79,0,0,1-8.2,0,5.6,5.6,0,0,1-1.7-4.1A5.6,5.6,0,0,1,74.1,4.2Z"/><path class="cls-1" d="M74.1,4.2a5.79,5.79,0,0,1,8.2,0A5.6,5.6,0,0,1,84,8.3a5.6,5.6,0,0,1-1.7,4.1,5.79,5.79,0,0,1-8.2,0,5.6,5.6,0,0,1-1.7-4.1A5.6,5.6,0,0,1,74.1,4.2Z"/><path class="cls-2" d="M74.1,50.8a5.79,5.79,0,0,1,8.2,0A5.53,5.53,0,0,1,84,54.85a5.8,5.8,0,0,1-11.6,0A5.53,5.53,0,0,1,74.1,50.8Z"/><path class="cls-1" d="M74.1,50.8a5.79,5.79,0,0,1,8.2,0A5.53,5.53,0,0,1,84,54.85a5.8,5.8,0,0,1-11.6,0A5.53,5.53,0,0,1,74.1,50.8Z"/><path class="cls-2" d="M82.3,74.15a5.79,5.79,0,1,1-4.1-1.7A5.6,5.6,0,0,1,82.3,74.15Z"/><path class="cls-1" d="M82.3,74.15a5.79,5.79,0,1,1-4.1-1.7A5.6,5.6,0,0,1,82.3,74.15Z"/></g></symbol></defs><g><use width="86.5" height="86.55" xlink:href="#logo"/></g></svg>
