<svg xmlns="http://www.w3.org/2000/svg" viewBox="0 0 16.6 16.6"><defs><style>.cls-1{fill:#fff;fill-rule:evenodd;}.cls-2,.cls-3{fill:none;stroke:#000;stroke-linecap:round;}.cls-2{stroke-linejoin:round;stroke-width:5px;}.cls-3{stroke-miterlimit:2;stroke-width:2px;}</style></defs><title>Asset 3</title><g id="Layer_2" data-name="Layer 2"><g id="Layer_5" data-name="Layer 5"><path class="cls-1" d="M4.2,4.2A5.6,5.6,0,0,1,8.3,2.5a5.6,5.6,0,0,1,4.1,1.7,5.53,5.53,0,0,1,1.7,4.05,5.6,5.6,0,0,1-1.7,4.1,5.6,5.6,0,0,1-4.1,1.7,5.6,5.6,0,0,1-4.1-1.7,5.6,5.6,0,0,1-1.7-4.1A5.53,5.53,0,0,1,4.2,4.2Z"/><path class="cls-2" d="M4.2,4.2A5.6,5.6,0,0,1,8.3,2.5a5.6,5.6,0,0,1,4.1,1.7,5.53,5.53,0,0,1,1.7,4.05,5.6,5.6,0,0,1-1.7,4.1,5.6,5.6,0,0,1-4.1,1.7,5.6,5.6,0,0,1-4.1-1.7,5.6,5.6,0,0,1-1.7-4.1A5.53,5.53,0,0,1,4.2,4.2Z"/><line class="cls-3" x1="8.3" y1="1.25" x2="8.3" y2="15.25"/></g></g></svg>